<?xml version="1.0" encoding="UTF-8"?>
<svg width="371px" height="100px" viewBox="0 0 371 100" version="1.1" xmlns="http://www.w3.org/2000/svg" xmlns:xlink="http://www.w3.org/1999/xlink">
    <!-- Generator: Sketch 48.2 (47327) - http://www.bohemiancoding.com/sketch -->
    <title>Freepik - Logo (2)</title>
    <desc>Created with Sketch.</desc>
    <defs></defs>
    <g id="Page-1" stroke="none" stroke-width="1" fill="none" fill-rule="evenodd">
        <g id="Freepik---Logo-(2)" fill="#FFFFFF" fill-rule="nonzero">
            <g id="XMLID_3701_">
                <path d="M16.0744186,24.6 C13.5607235,27.2 11.3777778,30.0666667 9.65788114,33.1333333 L6.94573643,31.7333333 C6.54883721,30 4.89509044,28.8 3.10904393,29 C1.19069767,29.2 -0.198449612,31 0.0661498708,32.9333333 C0.264599483,34.8666667 2.05064599,36.2666667 3.96899225,36 C4.36589147,35.9333333 4.69664083,35.8666667 5.02739018,35.6666667 L7.67338501,37.0666667 C6.21808786,40.3333333 5.15968992,43.7333333 4.56434109,47.2666667 L8.93023256,48.0666667 C10.25323,40.4 13.8914729,33.4 19.3157623,27.7333333 L16.0744186,24.6 Z" id="XMLID_3728_"></path>
                <path d="M47.9586563,11.1333333 C46.9664083,11.1333333 45.9741602,11.2 44.9819121,11.2 L44.5850129,7.53333333 C45.6434109,6.66666667 46.3049096,5.26666667 46.1064599,3.73333333 C45.8418605,1.4 43.7912145,-0.2 41.475969,0.0666666667 C39.1607235,0.333333333 37.5731266,2.4 37.8377261,4.73333333 C38.0361757,6.2 38.9622739,7.46666667 40.2191214,8 L40.6160207,11.6666667 C36.4485788,12.3333333 32.4795866,13.6 28.6428941,15.4666667 L30.5612403,19.4666667 C35.9855297,16.8666667 41.8728682,15.5333333 47.9586563,15.5333333 C50.8692506,15.5333333 53.7136951,15.8666667 56.5581395,16.4666667 L57.4842377,12.1333333 C54.3751938,11.4666667 51.1338501,11.1333333 47.9586563,11.1333333 Z" id="XMLID_3727_"></path>
                <path d="M86.3255814,26 C88.2439276,25.7333333 89.6330749,24 89.3684755,22.0666667 C89.103876,20.1333333 87.3839793,18.7333333 85.4656331,19 C83.6795866,19.2 82.3565891,20.8 82.3565891,22.5333333 L79.9090439,24.6666667 C77.4614987,22.1333333 74.749354,19.9333333 71.7064599,18 L69.3912145,21.7333333 C76.0062016,25.9333333 81.0997416,31.8666667 84.2749354,38.8666667 L88.3100775,37.0666667 C86.8547804,33.8 85.002584,30.8 82.8196382,28 L85.1348837,25.9333333 C85.5317829,26.0666667 85.9286822,26.0666667 86.3255814,26 Z" id="XMLID_3726_"></path>
                <path d="M44.7834625,70.8666667 C42.5343669,71 40.2852713,71.0666667 38.0361757,71.0666667 C32.9426357,71.0666667 27.9813953,70.7333333 23.6155039,70 C21.3664083,69.6666667 18.7204134,69.0666667 16.2067183,68.2666667 C22.2925065,79.1333333 34.0671835,86.5333333 47.4956072,86.5333333 C64.0992248,86.5333333 78.0568475,75.3333333 82.0919897,60.1333333 C78.1229974,62.7333333 73.3602067,64.9333333 67.8036176,66.7333333 C60.9901809,69 53.0521964,70.4 44.7834625,70.8666667 Z" id="XMLID_3725_"></path>
                <path d="M47.9586563,20 C28.5105943,20 12.6346253,35.6 12.6346253,54.8 C12.6346253,57.2666667 12.8992248,59.8 13.4284238,62.2 C17.3312661,65 29.172093,67.4 44.518863,66.4666667 C61.2547804,65.4666667 75.278553,60.8666667 83.2826873,53.8 C83.2826873,52.6666667 83.1503876,51.5333333 83.0180879,50.4 C80.7689922,33.0666667 65.7529716,20 47.9586563,20 Z M35.3901809,58.1333333 C29.4366925,58.1333333 24.6739018,53.2666667 24.6739018,47.3333333 C24.6739018,41.3333333 29.5028424,36.5333333 35.3901809,36.5333333 C41.3436693,36.5333333 46.1064599,41.4 46.1064599,47.3333333 C46.1726098,53.2666667 41.3436693,58.1333333 35.3901809,58.1333333 Z M62.9085271,52.8 C58.5426357,52.8 55.0366925,49.2 55.0366925,44.8666667 C55.0366925,40.4666667 58.6087855,36.9333333 62.9085271,36.9333333 C67.2744186,36.9333333 70.7803618,40.5333333 70.7803618,44.8666667 C70.8465116,49.2666667 67.2744186,52.8 62.9085271,52.8 Z" id="XMLID_3702_"></path>
            </g>
            <path d="M140.899225,30.9333333 C139.179328,30.2666667 136.202584,29.1333333 132.89509,29.5333333 C129.719897,29.9333333 128,31.5333333 128,35.4 L128,40.4666667 L140.965375,40.4666667 L140.965375,50.5333333 L128,50.5333333 L128,82.4666667 L116.754522,82.4666667 L116.754522,50.5333333 L108.948837,50.5333333 L108.948837,40.5333333 L116.754522,40.5333333 L116.754522,35.3333333 C116.754522,25.4666667 121.980362,19.0666667 131.704393,19.0666667 C135.408786,19.0666667 138.45168,19.8 140.965375,20.8666667 L140.899225,30.9333333 Z" id="XMLID_3699_"></path>
            <path d="M168.285271,50.4666667 C167.226873,50.2666667 166.234625,50.2 165.242377,50.2 C160.016537,50.2 156.444444,53.4 156.444444,59.6666667 L156.444444,82.5333333 L145.198966,82.5333333 L145.198966,40.5333333 L156.047545,40.5333333 L156.047545,45.1333333 C158.69354,41.2 162.662532,39.4 167.756072,39.4 C170.137468,39.4 172.651163,40.1333333 174.10646,41.4 L168.285271,50.4666667 Z" id="XMLID_3697_"></path>
            <path d="M212.804134,61.4666667 C212.804134,62.7333333 212.737984,64.3333333 212.605685,65.2666667 L183.036693,65.2666667 C184.22739,71.3333333 188.460982,74 193.752972,74 C197.391214,74 201.294057,72.5333333 204.270801,70 L210.819638,77.2666667 C206.056848,81.6666667 200.037209,83.6666667 193.091473,83.6666667 C180.324548,83.6666667 171.460465,74.9333333 171.460465,61.6666667 C171.460465,48.4666667 180.059948,39.4666667 192.562274,39.4666667 C204.535401,39.4 212.737984,48.3333333 212.804134,61.4666667 Z M183.102842,57.5333333 L201.558656,57.5333333 C200.500258,52.1333333 197.325065,49.1333333 192.496124,49.1333333 C187.137984,49.1333333 184.09509,52.3333333 183.102842,57.5333333 Z" id="XMLID_3694_"></path>
            <path d="M257.256848,61.4666667 C257.256848,62.7333333 257.190698,64.3333333 257.058398,65.2666667 L227.489406,65.2666667 C228.680103,71.3333333 232.913695,74 238.205685,74 C241.843928,74 245.74677,72.5333333 248.723514,70 L255.272351,77.2666667 C250.509561,81.6666667 244.489922,83.6666667 237.544186,83.6666667 C224.777261,83.6666667 215.913178,74.9333333 215.913178,61.6666667 C215.913178,48.4666667 224.512661,39.4666667 237.014987,39.4666667 C248.988114,39.4 257.190698,48.3333333 257.256848,61.4666667 Z M227.555556,57.5333333 L246.01137,57.5333333 C244.952972,52.1333333 241.777778,49.1333333 236.948837,49.1333333 C231.656848,49.1333333 228.547804,52.3333333 227.555556,57.5333333 Z" id="XMLID_3682_"></path>
            <path d="M305.744703,61.4666667 C305.744703,74.0666667 297.07907,83.6 285.568992,83.6 C279.946253,83.6 276.043411,81.4 273.331266,78.1333333 L273.331266,99.8666667 L262.151938,99.8666667 L262.151938,40.5333333 L273.132817,40.5333333 L273.132817,45.2 C275.844961,41.8 279.813953,39.4666667 285.568992,39.4666667 C297.07907,39.4 305.744703,48.8666667 305.744703,61.4666667 Z M272.735917,61.4666667 C272.735917,68.0666667 277.101809,73.0666667 283.452196,73.0666667 C290.067183,73.0666667 294.234625,67.9333333 294.234625,61.4666667 C294.234625,55 290.133333,49.8666667 283.452196,49.8666667 C277.101809,49.9333333 272.735917,54.8666667 272.735917,61.4666667 Z" id="XMLID_3679_"></path>
            <path d="M323.803618,26.7333333 C323.803618,30.8 320.694574,33.9333333 316.593282,33.9333333 C312.55814,33.9333333 309.449096,30.8 309.449096,26.7333333 C309.449096,22.6666667 312.55814,19.4666667 316.593282,19.4666667 C320.628424,19.4666667 323.803618,22.6666667 323.803618,26.7333333 Z M322.282171,82.4666667 L311.036693,82.4666667 L311.036693,40.4666667 L322.282171,40.4666667 L322.282171,82.4666667 Z" id="XMLID_3648_"></path>
            <polygon id="XMLID_3583_" points="341.002584 55.4666667 356.680103 40.5333333 370.439276 40.5333333 350.197416 60.2666667 370.505426 82.4666667 356.680103 82.4666667 340.870284 65.4666667 340.870284 82.4666667 329.624806 82.4666667 329.624806 20.0666667 340.870284 20.0666667 340.870284 55.4666667"></polygon>
        </g>
    </g>
</svg>